<svg xmlns="http://www.w3.org/2000/svg" width="32" height="32" viewBox="0 0 32 32">
  <g id="logo_twitter-x" data-name="logo twitter-x" transform="translate(-411.92 -200.56)">
    <path id="Tracé_3" data-name="Tracé 3" d="M440.189,232.56H415.651a3.731,3.731,0,0,1-3.731-3.731V204.291a3.731,3.731,0,0,1,3.731-3.731h24.538a3.731,3.731,0,0,1,3.731,3.731v24.538A3.73,3.73,0,0,1,440.189,232.56Z" transform="translate(0 0)"/>
    <g id="layer1" transform="translate(416.71 206.068)">
      <path id="path1009" d="M489.635,374.75l8.656,11.574-8.711,9.41h1.961l7.626-8.239,6.162,8.239H512l-9.143-12.225,8.108-8.759H509l-7.023,7.587-5.675-7.587Zm2.883,1.444h3.065l13.534,18.1h-3.065Z" transform="translate(-489.58 -374.75)" fill="#fff"/>
    </g>
  </g>
</svg>
