<svg xmlns="http://www.w3.org/2000/svg" width="32" height="32" viewBox="0 0 32 32">
  <g id="logo_facebook" data-name="logo facebook" transform="translate(-113 -100)">
    <rect id="Rectangle_4" data-name="Rectangle 4" width="27" height="26.996" rx="5" transform="translate(116 104.674)" fill="#fff"/>
    <path id="Tracé_2" data-name="Tracé 2" d="M119.688,93H96.312A4.312,4.312,0,0,0,92,97.312v23.375A4.312,4.312,0,0,0,96.312,125h11.529l.02-11.435H104.89a.7.7,0,0,1-.7-.7l-.015-3.686a.7.7,0,0,1,.7-.7h2.966v-3.562c0-4.133,2.525-6.384,6.212-6.384h3.026a.7.7,0,0,1,.7.7v3.108a.7.7,0,0,1-.7.7h-1.857c-2,0-2.393.953-2.393,2.351v3.083h4.406a.7.7,0,0,1,.7.783l-.437,3.686a.7.7,0,0,1-.7.618h-3.949L112.827,125h6.86A4.312,4.312,0,0,0,124,120.686V97.309A4.312,4.312,0,0,0,119.688,93Zm0,0" transform="translate(21 7)" fill="#475993"/>
  </g>
</svg>
